<mxfile host="app.diagrams.net" agent="Mozilla/5.0 (Windows NT 10.0; Win64; x64) AppleWebKit/537.36 (KHTML, like Gecko) Chrome/130.0.0.0 Safari/537.36" version="24.8.6">
  <diagram name="Trang-1" id="UHBwWJJXxiTwIiKuNaWZ">
    <mxGraphModel dx="808" dy="489" grid="1" gridSize="10" guides="1" tooltips="1" connect="1" arrows="1" fold="1" page="1" pageScale="1" pageWidth="827" pageHeight="1169" math="0" shadow="0">
      <root>
        <mxCell id="0" />
        <mxCell id="1" parent="0" />
        <mxCell id="ELoLrJMEqkcNT1h3Dx7s-3" style="edgeStyle=orthogonalEdgeStyle;rounded=0;orthogonalLoop=1;jettySize=auto;html=1;entryX=0.5;entryY=0;entryDx=0;entryDy=0;" edge="1" parent="1" source="ELoLrJMEqkcNT1h3Dx7s-1" target="ELoLrJMEqkcNT1h3Dx7s-2">
          <mxGeometry relative="1" as="geometry" />
        </mxCell>
        <mxCell id="ELoLrJMEqkcNT1h3Dx7s-1" value="" style="ellipse;fillColor=strokeColor;html=1;" vertex="1" parent="1">
          <mxGeometry x="120" y="40" width="30" height="30" as="geometry" />
        </mxCell>
        <mxCell id="ELoLrJMEqkcNT1h3Dx7s-7" style="edgeStyle=orthogonalEdgeStyle;rounded=0;orthogonalLoop=1;jettySize=auto;html=1;entryX=0.5;entryY=0;entryDx=0;entryDy=0;" edge="1" parent="1" source="ELoLrJMEqkcNT1h3Dx7s-2" target="ELoLrJMEqkcNT1h3Dx7s-6">
          <mxGeometry relative="1" as="geometry" />
        </mxCell>
        <mxCell id="ELoLrJMEqkcNT1h3Dx7s-2" value="ShowGameName" style="html=1;align=center;verticalAlign=top;rounded=1;absoluteArcSize=1;arcSize=10;dashed=0;whiteSpace=wrap;" vertex="1" parent="1">
          <mxGeometry x="82.5" y="120" width="105" height="30" as="geometry" />
        </mxCell>
        <mxCell id="ELoLrJMEqkcNT1h3Dx7s-9" style="edgeStyle=orthogonalEdgeStyle;rounded=0;orthogonalLoop=1;jettySize=auto;html=1;entryX=0;entryY=0.5;entryDx=0;entryDy=0;" edge="1" parent="1" source="ELoLrJMEqkcNT1h3Dx7s-6" target="ELoLrJMEqkcNT1h3Dx7s-8">
          <mxGeometry relative="1" as="geometry">
            <Array as="points">
              <mxPoint x="135" y="535" />
            </Array>
          </mxGeometry>
        </mxCell>
        <mxCell id="ELoLrJMEqkcNT1h3Dx7s-10" style="edgeStyle=orthogonalEdgeStyle;rounded=0;orthogonalLoop=1;jettySize=auto;html=1;exitX=1;exitY=0.5;exitDx=0;exitDy=0;" edge="1" parent="1" source="ELoLrJMEqkcNT1h3Dx7s-6" target="ELoLrJMEqkcNT1h3Dx7s-11">
          <mxGeometry relative="1" as="geometry">
            <mxPoint x="280" y="240" as="targetPoint" />
          </mxGeometry>
        </mxCell>
        <mxCell id="ELoLrJMEqkcNT1h3Dx7s-6" value="PlayerChoice:&#xa;- Play&#xa;- Quit" style="rhombus;" vertex="1" parent="1">
          <mxGeometry x="57.5" y="200" width="155" height="80" as="geometry" />
        </mxCell>
        <mxCell id="ELoLrJMEqkcNT1h3Dx7s-8" value="" style="ellipse;html=1;shape=endState;fillColor=strokeColor;" vertex="1" parent="1">
          <mxGeometry x="384" y="520" width="30" height="30" as="geometry" />
        </mxCell>
        <mxCell id="ELoLrJMEqkcNT1h3Dx7s-13" style="edgeStyle=orthogonalEdgeStyle;rounded=0;orthogonalLoop=1;jettySize=auto;html=1;exitX=1;exitY=0.5;exitDx=0;exitDy=0;entryX=0;entryY=0.5;entryDx=0;entryDy=0;" edge="1" parent="1" source="ELoLrJMEqkcNT1h3Dx7s-11" target="ELoLrJMEqkcNT1h3Dx7s-12">
          <mxGeometry relative="1" as="geometry" />
        </mxCell>
        <mxCell id="ELoLrJMEqkcNT1h3Dx7s-11" value="SetUpBoard" style="html=1;align=center;verticalAlign=top;rounded=1;absoluteArcSize=1;arcSize=10;dashed=0;whiteSpace=wrap;" vertex="1" parent="1">
          <mxGeometry x="280" y="225" width="90" height="30" as="geometry" />
        </mxCell>
        <mxCell id="ELoLrJMEqkcNT1h3Dx7s-16" style="edgeStyle=orthogonalEdgeStyle;rounded=0;orthogonalLoop=1;jettySize=auto;html=1;exitX=1;exitY=0.5;exitDx=0;exitDy=0;entryX=0;entryY=0.5;entryDx=0;entryDy=0;" edge="1" parent="1" source="ELoLrJMEqkcNT1h3Dx7s-12" target="ELoLrJMEqkcNT1h3Dx7s-14">
          <mxGeometry relative="1" as="geometry" />
        </mxCell>
        <mxCell id="ELoLrJMEqkcNT1h3Dx7s-12" value="PlayTurn" style="html=1;align=center;verticalAlign=top;rounded=1;absoluteArcSize=1;arcSize=10;dashed=0;whiteSpace=wrap;" vertex="1" parent="1">
          <mxGeometry x="440" y="227.5" width="70" height="25" as="geometry" />
        </mxCell>
        <mxCell id="ELoLrJMEqkcNT1h3Dx7s-18" style="edgeStyle=orthogonalEdgeStyle;rounded=0;orthogonalLoop=1;jettySize=auto;html=1;entryX=1;entryY=0.5;entryDx=0;entryDy=0;" edge="1" parent="1" source="ELoLrJMEqkcNT1h3Dx7s-14" target="ELoLrJMEqkcNT1h3Dx7s-17">
          <mxGeometry relative="1" as="geometry">
            <Array as="points">
              <mxPoint x="610" y="365" />
            </Array>
          </mxGeometry>
        </mxCell>
        <mxCell id="ELoLrJMEqkcNT1h3Dx7s-14" value="UpdateBoard" style="html=1;align=center;verticalAlign=top;rounded=1;absoluteArcSize=1;arcSize=10;dashed=0;whiteSpace=wrap;" vertex="1" parent="1">
          <mxGeometry x="570" y="227.5" width="90" height="25" as="geometry" />
        </mxCell>
        <mxCell id="ELoLrJMEqkcNT1h3Dx7s-19" style="edgeStyle=orthogonalEdgeStyle;rounded=0;orthogonalLoop=1;jettySize=auto;html=1;exitX=0.5;exitY=1;exitDx=0;exitDy=0;" edge="1" parent="1" source="ELoLrJMEqkcNT1h3Dx7s-17" target="ELoLrJMEqkcNT1h3Dx7s-20">
          <mxGeometry relative="1" as="geometry">
            <mxPoint x="475" y="450" as="targetPoint" />
          </mxGeometry>
        </mxCell>
        <mxCell id="ELoLrJMEqkcNT1h3Dx7s-22" style="edgeStyle=orthogonalEdgeStyle;rounded=0;orthogonalLoop=1;jettySize=auto;html=1;exitX=0.5;exitY=0;exitDx=0;exitDy=0;entryX=0.5;entryY=1;entryDx=0;entryDy=0;" edge="1" parent="1" source="ELoLrJMEqkcNT1h3Dx7s-17" target="ELoLrJMEqkcNT1h3Dx7s-12">
          <mxGeometry relative="1" as="geometry" />
        </mxCell>
        <mxCell id="ELoLrJMEqkcNT1h3Dx7s-17" value="CheckGameOver" style="rhombus;" vertex="1" parent="1">
          <mxGeometry x="395" y="330" width="160" height="70" as="geometry" />
        </mxCell>
        <mxCell id="ELoLrJMEqkcNT1h3Dx7s-21" style="edgeStyle=orthogonalEdgeStyle;rounded=0;orthogonalLoop=1;jettySize=auto;html=1;entryX=1;entryY=0.5;entryDx=0;entryDy=0;" edge="1" parent="1" source="ELoLrJMEqkcNT1h3Dx7s-20" target="ELoLrJMEqkcNT1h3Dx7s-8">
          <mxGeometry relative="1" as="geometry" />
        </mxCell>
        <mxCell id="ELoLrJMEqkcNT1h3Dx7s-20" value="ShowResult" style="html=1;align=center;verticalAlign=top;rounded=1;absoluteArcSize=1;arcSize=10;dashed=0;whiteSpace=wrap;" vertex="1" parent="1">
          <mxGeometry x="405" y="440" width="140" height="30" as="geometry" />
        </mxCell>
        <mxCell id="ELoLrJMEqkcNT1h3Dx7s-23" value="Play" style="text;align=center;verticalAlign=middle;dashed=0;whiteSpace=wrap;" vertex="1" parent="1">
          <mxGeometry x="220" y="220" width="40" height="20" as="geometry" />
        </mxCell>
        <mxCell id="ELoLrJMEqkcNT1h3Dx7s-24" value="True" style="text;html=1;align=center;" vertex="1" parent="1">
          <mxGeometry x="480" y="410" width="30" height="20" as="geometry" />
        </mxCell>
      </root>
    </mxGraphModel>
  </diagram>
</mxfile>
